<?xml version="1.0" encoding="UTF-8" standalone="no"?>
<svg width="48px" height="50px" viewBox="0 0 48 50" version="1.1" xmlns="http://www.w3.org/2000/svg" xmlns:xlink="http://www.w3.org/1999/xlink" xmlns:sketch="http://www.bohemiancoding.com/sketch/ns">
    <!-- Generator: Sketch 3.4.4 (17249) - http://www.bohemiancoding.com/sketch -->
    <title>toiletpaper</title>
    <desc>Created with Sketch.</desc>
    <defs></defs>
    <g id="Page-1" stroke="none" stroke-width="1" fill="none" fill-rule="evenodd" sketch:type="MSPage">
        <g id="toiletpaper" sketch:type="MSLayerGroup" fill="#FFFFFF">
            <g id="Group" sketch:type="MSShapeGroup">
                <path d="M18.869,8.99 C21.039,8.99 23.23,8.413 23.23,7.125 C23.23,5.837 21.04,5.26 18.869,5.26 C16.698,5.26 14.508,5.837 14.508,7.125 C14.508,8.413 16.698,8.99 18.869,8.99 L18.869,8.99 Z M18.869,6.46 C20.683,6.46 21.742,6.89 21.994,7.125 C21.743,7.36 20.684,7.79 18.869,7.79 C17.054,7.79 15.996,7.36 15.744,7.125 C15.996,6.89 17.055,6.46 18.869,6.46 L18.869,6.46 Z" id="Shape"></path>
                <path d="M12.744,39.052 C12.468,39.052 12.244,39.276 12.244,39.552 L12.244,41.508 C12.244,41.784 12.468,42.008 12.744,42.008 C13.02,42.008 13.244,41.784 13.244,41.508 L13.244,39.552 C13.244,39.275 13.021,39.052 12.744,39.052 L12.744,39.052 Z" id="Shape"></path>
                <path d="M12.744,42.964 C12.468,42.964 12.244,43.188 12.244,43.464 L12.244,45.419 C12.244,45.695 12.468,45.919 12.744,45.919 C13.02,45.919 13.244,45.695 13.244,45.419 L13.244,43.464 C13.244,43.188 13.021,42.964 12.744,42.964 L12.744,42.964 Z" id="Shape"></path>
                <path d="M12.744,35.14 C12.468,35.14 12.244,35.364 12.244,35.64 L12.244,37.596 C12.244,37.872 12.468,38.096 12.744,38.096 C13.02,38.096 13.244,37.872 13.244,37.596 L13.244,35.64 C13.244,35.363 13.021,35.14 12.744,35.14 L12.744,35.14 Z" id="Shape"></path>
                <path d="M12.744,15.581 C12.468,15.581 12.244,15.805 12.244,16.081 L12.244,18.037 C12.244,18.313 12.468,18.537 12.744,18.537 C13.02,18.537 13.244,18.313 13.244,18.037 L13.244,16.081 C13.244,15.805 13.021,15.581 12.744,15.581 L12.744,15.581 Z" id="Shape"></path>
                <path d="M12.744,31.229 C12.468,31.229 12.244,31.453 12.244,31.729 L12.244,33.684 C12.244,33.96 12.468,34.184 12.744,34.184 C13.02,34.184 13.244,33.96 13.244,33.684 L13.244,31.729 C13.244,31.452 13.021,31.229 12.744,31.229 L12.744,31.229 Z" id="Shape"></path>
                <path d="M12.744,19.493 C12.468,19.493 12.244,19.717 12.244,19.993 L12.244,21.949 C12.244,22.225 12.468,22.449 12.744,22.449 C13.02,22.449 13.244,22.225 13.244,21.949 L13.244,19.993 C13.244,19.716 13.021,19.493 12.744,19.493 L12.744,19.493 Z" id="Shape"></path>
                <path d="M12.744,23.405 C12.468,23.405 12.244,23.629 12.244,23.905 L12.244,25.861 C12.244,26.137 12.468,26.361 12.744,26.361 C13.02,26.361 13.244,26.137 13.244,25.861 L13.244,23.905 C13.244,23.628 13.021,23.405 12.744,23.405 L12.744,23.405 Z" id="Shape"></path>
                <path d="M12.744,27.316 C12.468,27.316 12.244,27.54 12.244,27.816 L12.244,29.772 C12.244,30.048 12.468,30.272 12.744,30.272 C13.02,30.272 13.244,30.048 13.244,29.772 L13.244,27.816 C13.244,27.54 13.021,27.316 12.744,27.316 L12.744,27.316 Z" id="Shape"></path>
                <path d="M47.507,11.078 C47.341,10.926 47.119,10.854 46.894,10.873 C43.955,11.151 41.208,10.727 39.393,9.729 C38.267,9.109 37.596,8.326 37.53,7.562 C37.526,7.52 37.483,7.249 37.483,7.249 C37.472,7.205 37.473,7.157 37.455,7.116 C36.909,2.948 27.637,0.699 18.87,0.699 C9.837,0.699 0.238,3.081 0.233,7.495 L0.233,7.495 L0.233,42.5 C0.233,46.917 9.836,49.3 18.871,49.3 C26.526,49.3 34.564,47.583 36.85,44.375 C38.186,45.997 40.908,47.285 44.6,47.286 L44.601,47.286 C45.418,47.286 46.258,47.218 47.096,47.085 C47.485,47.023 47.771,46.689 47.771,46.295 L47.771,11.67 C47.769,11.445 47.674,11.23 47.507,11.078 L47.507,11.078 Z M18.869,2.3 C28.91,2.3 35.907,5.041 35.907,7.5 C35.907,9.959 28.91,12.7 18.869,12.7 C8.828,12.7 1.831,9.959 1.831,7.5 C1.831,5.041 8.829,2.3 18.869,2.3 L18.869,2.3 Z M18.869,47.7 C16.859,47.7 14.978,47.586 13.244,47.39 L13.244,47.374 C13.244,47.098 13.02,46.874 12.744,46.874 C12.505,46.874 12.315,47.045 12.265,47.269 C5.896,46.405 1.831,44.373 1.831,42.499 L1.831,10.386 C3.918,12.109 7.83,13.285 12.244,13.87 L12.244,14.125 C12.244,14.401 12.468,14.625 12.744,14.625 C13.02,14.625 13.244,14.401 13.244,14.125 L13.244,13.987 C15.084,14.191 16.987,14.3 18.869,14.3 C25.681,14.3 32.808,12.943 35.907,10.383 L35.907,42.5 C35.907,44.96 28.91,47.7 18.869,47.7 L18.869,47.7 Z M46.169,45.597 C45.64,45.657 45.113,45.686 44.599,45.686 L44.598,45.686 C40.215,45.686 37.524,43.576 37.524,42.063 L37.524,10.393 C37.846,10.659 38.213,10.906 38.622,11.131 C40.529,12.18 43.232,12.689 46.17,12.53 L46.17,45.597 L46.169,45.597 Z" id="Shape"></path>
            </g>
        </g>
    </g>
</svg>